<svg xmlns="http://www.w3.org/2000/svg" width="2480" height="3508" viewBox="0 0 2480 3508"><rect width="100%" height="100%" fill="#DDDDDD"/><path fill="#999999" d="M727 1922.075q26.33 0 47.08-8.77 20.76-8.78 34.93-24.64 14.18-15.86 21.77-38.48 7.6-22.61 7.6-50.62v-292.28h90.78v292.28q0 43.54-14 80.49-14.01 36.96-40.17 63.79-26.15 26.83-63.61 41.85-37.47 15.02-84.38 15.02-47.25 0-84.71-15.02t-63.62-41.85-40.16-63.79q-14.01-36.95-14.01-80.49v-292.28h90.79v291.94q0 28.01 7.59 50.63 7.59 22.61 21.94 38.64 14.34 16.03 35.1 24.81 20.76 8.77 47.08 8.77m765.45-414.79h68.51v488.03h-79.98v-315.23q0-18.9 2.02-40.83l-147.49 277.08q-10.46 19.92-32.06 19.92h-12.82q-21.6 0-32.07-19.92l-149.17-278.1q1.01 11.14 1.69 21.94.67 10.8.67 19.91v315.23h-79.99v-488.03h68.52q6.07 0 10.46.34t7.93 1.69 6.41 4.39q2.87 3.03 5.57 8.1l146.14 271.01q5.74 10.8 10.63 22.27 4.89 11.48 9.62 23.63 4.72-12.49 9.79-24.13 5.06-11.65 10.8-22.45l144.11-270.33q2.7-5.07 5.74-8.1 3.03-3.04 6.58-4.39 3.54-1.35 7.93-1.69t10.46-.34m267.98 413.1h195.07v74.93h-285.86v-488.03h90.79z"/></svg>